<svg xmlns="http://www.w3.org/2000/svg" viewBox="0 0 468 520" width="468" height="520">
  <path fill="#16294a" d="M233.85 26.00 L420.91 134.00 L441.69 170.00 L441.69 386.00 L254.63 494.00 L213.06 494.00 L26.00 386.00 L26.00 170.00 L46.78 134.00 Z"/>
  <path fill="#5b9bd0" fill-rule="evenodd" d="M233.85 28.38 L416.79 134.00 L233.85 239.62 L50.90 134.00 Z"/>
  <path fill="#4786bd" fill-rule="evenodd" d="M419.08 135.58 L236.13 241.21 L256.46 276.42 L439.41 170.79 Z"/>
  <path fill="#4786bd" fill-rule="evenodd" d="M48.61 135.58 L231.56 241.21 L211.23 276.42 L28.29 170.79 Z"/>
  <path fill="#3a6ea5" fill-rule="evenodd" d="M254.17 491.62 L213.52 491.62 L213.52 280.38 L254.17 280.38 Z M233.85 242.53 L254.17 277.74 L213.52 277.74 Z"/>
  <path fill="#2d5e96" fill-rule="evenodd" d="M439.63 384.81 L256.69 490.44 L256.69 279.19 L439.63 173.56 Z M393.06 357.92 L303.27 409.76 L303.27 306.08 L393.06 254.24 Z"/>
  <path fill="#24467b" fill-rule="evenodd" d="M28.06 384.81 L211.00 490.44 L211.00 279.19 L28.06 173.56 Z M74.64 357.92 L164.43 409.76 L164.43 306.08 L74.64 254.24 Z"/>
  <path fill="#2a3036" fill-rule="evenodd" d="M393.06 357.92 L303.27 409.76 L303.27 306.08 L393.06 254.24 Z M74.64 357.92 L164.43 409.76 L164.43 306.08 L74.64 254.24 Z"/>
</svg>
